<?xml version="1.0" standalone="no"?><svg data-noselect="" 
  viewBox="83 22.852269162200002 731.85473227255 549" 
  width="731.85473227255" 
  height="549" 
  ref="svg_canvas" 
  preserveAspectRatio="none" 
  version="1.1" xmlns="http://www.w3.org/2000/svg" 
  style="background: #ffffff;">
    <defs></defs>
    <g id="shape_KAEiguNDND" class=""  ref="shape_KAEiguNDND" key="shape_KAEiguNDND" transform="translate(163,228.24453181009) rotate(0,70.003275352925,66.205723383074) scale(1,1)" style="cursor:move;display:inline;opacity:1;" filter="">
            <g style="display:inline"><rect fill="rgba(0,0,0,0)" width="160.00655070585083" height="152.4114467661478" x="-10" y="-10"></rect><svg version="1.1" id="图层_1" xmlns="http://www.w3.org/2000/svg" xmlns:xlink="http://www.w3.org/1999/xlink" x="0px" y="0px" viewBox="0 0 403.7 381.8" style="enable-background:new 0 0 403.7 381.8;" xml:space="preserve" width="140.00655070585083" height="132.4114467661478" class="style-removed" preserveAspectRatio="none" data-parent="shape_KAEiguNDND">

<g>
	<circle cx="293.8" cy="176" r="109.9" fill="#028FD4" stroke-width="0"></circle>
	<path d="M24.5,349.1H7.5c-4.1,0-7.5-3.3-7.5-7.5l0,0c0-4.1,3.3-7.5,7.5-7.5h17.1c4.1,0,7.5,3.3,7.5,7.5l0,0
		C32,345.7,28.7,349.1,24.5,349.1z" fill="#0797D6" stroke-width="0"></path>
	<g>
		<path d="M256.7,72.5c-13.4-3.7-27.5-5.7-42.2-5.7c-1.8,0-3.5,0-5.3,0.1h0v0h-115c-5.1,0-9.2,4.1-9.2,9.2v0
			c0,5.1,4.1,9.2,9.2,9.2h46.1c0,0,0,0,0,0c-0.1,0-0.2,0.1-0.2,0.1H184c3.8,0,6.9,3.1,6.9,6.9c0,1.9-0.8,3.6-2,4.9
			c-1.2,1.2-3,2-4.9,2h-65.2c0,0,0,0,0,0H70.1c-3.8,0-6.9,3.1-6.9,6.9c0,3.8,3.1,6.9,6.9,6.9H103c0,0,0,0,0,0
			c-8.2,8.2-15.5,17.4-21.7,27.2h33.4c3.8,0,6.9,3.1,6.9,6.9c0,1.9-0.8,3.6-2,4.9c-1.2,1.2-3,2-4.9,2H73.5v0c0,0,0,0,0,0h-58
			c-3.8,0-6.9,3.1-6.9,6.9s3.1,6.9,6.9,6.9h52C60.7,185.3,57,204.4,57,224.3c0,42.7,17,81.5,44.6,109.8H46c-2.1,0-3.9,0.8-5.3,2.2
			c-1.3,1.4-2.2,3.2-2.2,5.3c0,4.1,3.4,7.5,7.5,7.5h72.4h69.9c4.1,0,7.5,3.4,7.5,7.5c0,2.1-0.8,3.9-2.2,5.3
			c-1.3,1.3-3.2,2.2-5.3,2.2h-46.6c0,0,0,0,0,0h-24.7c-4.7,0-8.6,3.8-8.6,8.6s3.8,8.6,8.6,8.6h83.3c0,0,0,0,0,0
			c4.6,0.4,9.4,0.6,14.1,0.6c76,0,139.5-53.9,154.3-125.5c2.1-10.3,3.3-21.1,3.3-32C372,151.9,323.2,90.9,256.7,72.5z" fill="#012D80" stroke-width="0"></path>
		<path d="M34.6,113h15.7c3.8,0,6.9-3.1,6.9-6.9c0-3.8-3.1-6.9-6.9-6.9H34.6c-3.8,0-6.9,3.1-6.9,6.9
			C27.7,110,30.8,113,34.6,113z" fill="#012D80" stroke-width="0"></path>
	</g>
	<circle cx="225.7" cy="30.6" r="26.6" fill="#001F6B" stroke-width="0"></circle>
	<circle cx="287.9" cy="12.4" r="12.4" fill="#001F6B" stroke-width="0"></circle>
	<circle cx="330.6" cy="46.5" r="16.3" fill="#028FD4" stroke-width="0"></circle>
</g>
</svg></g>
        </g><g id="shape_rqjy8kmZzg" class="brand_slogan"  ref="shape_rqjy8kmZzg" key="shape_rqjy8kmZzg" transform="translate(289.25003262104997,265.697071703445) rotate(0,158.62530015157,81.76686523437499) scale(1,1)" style="cursor:move;display:inline;opacity:1;" filter="">
            <g style="display:inline"><svg xmlns="http://www.w3.org/2000/svg" version="1.1" xmlns:xlink="http://www.w3.org/1999/xlink" width="230.92" height="163.53373046874998" viewBox="0 0 230.92 163.53373046874998" preserveAspectRatio="none" data-parent="shape_rqjy8kmZzg"><rect fill="rgba(0,0,0,0)" width="140" height="22" x="22.73" y="70.76686523437499"></rect><g data-width="139.82284625132914" transform="translate(22.73, 0)"><path d="M13.32 0L0.46 0L0.46-2.00L8.79-12.42Q9.68-13.53 10.48-14.35L10.48-14.35L1.40-14.35L1.40-16.27L13.05-16.27L13.05-14.35L3.92-3.06L2.93-1.92L13.32-1.92L13.32 0Z" transform="translate(0 88.76686523437499) skewX(0)" fill="#191934" stroke="#191934" stroke-width="0.038" data-glyph-w="19.968350245725595" data-glyph-h="25.393671875" data-glyph-ascender="20.576865234375" data-glyph-descender="-4.816806640625"></path><path d="M1.02-5.23L1.02-5.23L3.05-5.41Q3.20-4.18 3.72-3.40Q4.25-2.62 5.36-2.14Q6.47-1.65 7.86-1.65L7.86-1.65Q9.09-1.65 10.03-2.02Q10.98-2.39 11.44-3.02Q11.90-3.66 11.90-4.42L11.90-4.42Q11.90-5.18 11.45-5.75Q11.01-6.33 9.99-6.71L9.99-6.71Q9.33-6.97 7.09-7.51Q4.85-8.05 3.95-8.52L3.95-8.52Q2.79-9.13 2.21-10.04Q1.64-10.94 1.64-12.06L1.64-12.06Q1.64-13.30 2.34-14.37Q3.04-15.44 4.38-15.99Q5.73-16.55 7.37-16.55L7.37-16.55Q9.18-16.55 10.56-15.97Q11.94-15.38 12.69-14.25Q13.43-13.12 13.48-11.69L13.48-11.69L11.42-11.53Q11.25-13.07 10.29-13.86Q9.33-14.65 7.46-14.65L7.46-14.65Q5.50-14.65 4.61-13.93Q3.72-13.22 3.72-12.21L3.72-12.21Q3.72-11.33 4.35-10.77L4.35-10.77Q4.97-10.20 7.60-9.61Q10.22-9.01 11.20-8.57L11.20-8.57Q12.62-7.91 13.30-6.91Q13.97-5.90 13.97-4.59L13.97-4.59Q13.97-3.30 13.23-2.15Q12.49-1.00 11.09-0.36Q9.70 0.28 7.96 0.28L7.96 0.28Q5.75 0.28 4.26-0.37Q2.76-1.01 1.91-2.30Q1.07-3.60 1.02-5.23Z" transform="translate(19.968350245725595 88.76686523437499) skewX(0)" fill="#191934" stroke="#191934" stroke-width="0.038" data-glyph-w="21.244693019163094" data-glyph-h="25.393671875" data-glyph-ascender="20.576865234375" data-glyph-descender="-4.816806640625"></path><path d="M2.69 0L0.10 0L6.39-8.48L0.84-16.27L3.41-16.27L6.36-12.10Q7.28-10.80 7.67-10.10L7.67-10.10Q8.21-10.99 8.96-11.95L8.96-11.95L12.23-16.27L14.57-16.27L8.86-8.60L15.02 0L12.35 0L8.26-5.80Q7.91-6.30 7.55-6.89L7.55-6.89Q7.00-6.00 6.77-5.67L6.77-5.67L2.69 0Z" transform="translate(41.21304326488869 88.76686523437499) skewX(0)" fill="#191934" stroke="#191934" stroke-width="0.038" data-glyph-w="21.244693019163094" data-glyph-h="25.393671875" data-glyph-ascender="20.576865234375" data-glyph-descender="-4.816806640625"></path><path d="M4.27 0L2.12 0L2.12-16.27L4.27-16.27L4.27 0Z" transform="translate(62.457736284051784 88.76686523437499) skewX(0)" fill="#191934" stroke="#191934" stroke-width="0.038" data-glyph-w="12.399082667600595" data-glyph-h="25.393671875" data-glyph-ascender="20.576865234375" data-glyph-descender="-4.816806640625"></path><path d="M12.43-6.88L12.43-16.27L14.58-16.27L14.58-6.87Q14.58-4.42 14.03-2.97Q13.47-1.53 12.03-0.63Q10.58 0.28 8.22 0.28L8.22 0.28Q5.94 0.28 4.48-0.51Q3.03-1.30 2.41-2.79Q1.79-4.28 1.79-6.87L1.79-6.87L1.79-16.27L3.94-16.27L3.94-6.88Q3.94-4.76 4.33-3.76Q4.73-2.75 5.69-2.21Q6.65-1.66 8.04-1.66L8.04-1.66Q10.41-1.66 11.42-2.74Q12.43-3.82 12.43-6.88L12.43-6.88Z" transform="translate(74.85681895165237 88.76686523437499) skewX(0)" fill="#191934" stroke="#191934" stroke-width="0.038" data-glyph-w="22.498838526975593" data-glyph-h="25.393671875" data-glyph-ascender="20.576865234375" data-glyph-descender="-4.816806640625"></path><path d="M4.02 0L1.86 0L1.86-16.27L12.84-16.27L12.84-14.35L4.02-14.35L4.02-9.31L11.65-9.31L11.65-7.39L4.02-7.39L4.02 0Z" transform="translate(97.35565747862796 88.76686523437499) skewX(0)" fill="#191934" stroke="#191934" stroke-width="0.038" data-glyph-w="19.968350245725595" data-glyph-h="25.393671875" data-glyph-ascender="20.576865234375" data-glyph-descender="-4.816806640625"></path><path d="M12.43-6.88L12.43-16.27L14.58-16.27L14.58-6.87Q14.58-4.42 14.03-2.97Q13.47-1.53 12.03-0.63Q10.58 0.28 8.22 0.28L8.22 0.28Q5.94 0.28 4.48-0.51Q3.03-1.30 2.41-2.79Q1.79-4.28 1.79-6.87L1.79-6.87L1.79-16.27L3.94-16.27L3.94-6.88Q3.94-4.76 4.33-3.76Q4.73-2.75 5.69-2.21Q6.65-1.66 8.04-1.66L8.04-1.66Q10.41-1.66 11.42-2.74Q12.43-3.82 12.43-6.88L12.43-6.88Z" transform="translate(117.32400772435355 88.76686523437499) skewX(0)" fill="#191934" stroke="#191934" stroke-width="0.038" data-glyph-w="22.498838526975593" data-glyph-h="25.393671875" data-glyph-ascender="20.576865234375" data-glyph-descender="-4.816806640625"></path></g></svg></g>
        </g><g id="shape_awPVCCiLnv" class="brand_name"  ref="shape_awPVCCiLnv" key="shape_awPVCCiLnv" transform="translate(223.06473227254997,-2.744603485689993) rotate(0,278.33862795542,297.20461) scale(1,1)" style="cursor:move;display:inline;opacity:1;" filter="">
            <g style="display:inline"><svg xmlns="http://www.w3.org/2000/svg" version="1.1" xmlns:xlink="http://www.w3.org/1999/xlink" width="766.1600000000001" height="594.40922" viewBox="0 0 766.1600000000001 594.40922" preserveAspectRatio="none" data-parent="shape_awPVCCiLnv"><rect fill="rgba(0,0,0,0)" width="427" height="84" x="84.79" y="255.20461"></rect><g data-width="426.40891" transform="translate(84.79, 0)"><path d="M3.14-9.75L38.75-46.46L3.14-46.46L3.14-56.55L52.23-56.55L52.23-46.13L17.81-10.09L52.23-10.09L52.23 0L3.14 0L3.14-9.75Z" transform="translate(0 327.20461) skewX(0)" fill="#191934" stroke="#191934" stroke-width="0.141" data-glyph-w="55.45266" data-glyph-h="84.79" data-glyph-ascender="72.83461" data-glyph-descender="-11.955390000000001"></path><path d="M33.92 0L5.51 0L5.51-10.09L31.37-10.09Q37.56-10.09 39.60-11.28L39.60-11.28Q42.56-13.06 42.56-16.62L42.56-16.62Q42.56-20.77 39.09-22.64L39.09-22.64Q37.14-23.74 32.81-23.74L32.81-23.74L22.30-23.74Q12.72-23.74 8.48-27.22L8.48-27.22Q5.85-29.42 4.37-32.73Q2.88-36.04 2.88-39.85L2.88-39.85Q2.88-45.79 6.36-50.70L6.36-50.70Q9.75-55.45 17.21-56.30L17.21-56.30Q19.76-56.55 24.76-56.55L24.76-56.55L52.82-56.55L52.82-46.46L27.47-46.46Q21.79-46.38 19.93-45.96L19.93-45.96Q16.11-45.02 16.11-40.19L16.11-40.19Q16.11-36.12 19.33-34.76L19.33-34.76Q21.45-33.75 26.45-33.75L26.45-33.75L35.53-33.75Q42.48-33.75 45.87-32.56L45.87-32.56Q51.89-30.52 54.18-25.44L54.18-25.44Q55.96-21.37 55.96-16.70L55.96-16.70Q55.96-11.53 53.59-7.46L53.59-7.46Q50.28-1.70 43.67-0.51L43.67-0.51Q40.44 0 33.92 0L33.92 0Z" transform="translate(55.45266 327.20461) skewX(0)" fill="#191934" stroke="#191934" stroke-width="0.141" data-glyph-w="58.929050000000004" data-glyph-h="84.79" data-glyph-ascender="72.83461" data-glyph-descender="-11.955390000000001"></path><path d="M74.45-34.68L74.45-26.37L3.56-26.37L3.56-34.68L74.45-34.68Z" transform="translate(114.38171 327.20461) skewX(0)" fill="#191934" stroke="#191934" stroke-width="0.141" data-glyph-w="78.0068" data-glyph-h="84.79" data-glyph-ascender="72.83461" data-glyph-descender="-11.955390000000001"></path><path d="M12.29-50.87L8.73-50.87L1.78-50.87L5.77-60.96L15.60-60.96L14.41-57.32L23.40-57.32L23.40-50.87L12.29-50.87ZM7.12-8.48L7.12-23.40L1.78-23.40L1.78-29.85L7.12-29.85L7.12-39.34L1.78-39.34L1.78-45.79L23.06-45.79L23.06-39.34L17.13-39.34L17.13-29.85L23.06-29.85L23.06-23.40L17.13-23.40L17.13-9.41Q17.13-7.38 19.25-7.38L19.25-7.38L21.71-7.38L18.23-0.17L14.41-0.17Q11.28-0.17 9.20-2.42Q7.12-4.66 7.12-8.48L7.12-8.48ZM67.15-31.97L62.74-31.97L62.74-28.15L75.38-28.15L75.38-21.71L62.74-21.71L62.74-17.89L76.23-17.89L76.23-11.45L62.74-11.45L62.74-8.65L53.08-8.65L53.08-11.45L44.18-11.45L47.74-6.61L76.23-6.61L76.23 0L40.44 0L36.21-5.94L34.76 0L24.42 0L28.66-16.62L25.52-21.03L29.76-21.03L31.71-28.83L24.59-28.83L30.86-52.06L25.18-52.06L25.18-59.44L42.99-59.44L36.80-36.12L43.41-36.12L43.41-36.04L39.17-18.31L42.82-13.23L42.82-17.89L53.08-17.89L53.08-21.71L43.67-21.71L43.67-28.15L53.08-28.15L53.08-31.97L44.43-31.97L44.43-38.41L53.08-38.41L53.08-42.14L43.58-42.14L43.58-48.67L44.77-48.67L53.08-48.67L53.08-52.40L44.43-52.40L44.43-58.84L53.08-58.84L53.08-61.13L62.74-61.13L62.74-58.84L75.04-58.84L75.04-48.67L76.23-48.67L76.23-42.31L75.04-42.31L75.04-39.85Q75.04-38.24 74.40-36.80Q73.77-35.36 72.71-34.30Q71.65-33.24 70.21-32.60Q68.76-31.97 67.15-31.97L67.15-31.97ZM62.74-52.40L62.74-48.67L65.46-48.67L65.46-52.40L62.74-52.40ZM62.74-42.14L62.74-38.41L63.42-38.41Q64.27-38.41 64.86-38.96Q65.46-39.51 65.46-40.44L65.46-40.44L65.46-42.14L62.74-42.14Z" transform="translate(192.38851 327.20461) skewX(0)" fill="#191934" stroke="#191934" stroke-width="0.141" data-glyph-w="78.0068" data-glyph-h="84.79" data-glyph-ascender="72.83461" data-glyph-descender="-11.955390000000001"></path><path d="M76.40-23.57L76.40-17.81L34.26-15.60L34.26-21.45L76.40-23.57ZM34.26-7.72L34.26-13.57L76.40-15.69L76.40-9.92L34.26-7.72ZM34.26-0.08L34.26-5.94L76.40-8.06L76.40-2.20L34.26-0.08ZM76.40-58.76L76.40-51.30Q75.38-45.87 72.96-41.84Q70.55-37.82 66.98-34.93L66.98-34.93Q69.44-34.34 71.77-34.00Q74.11-33.66 76.40-33.49L76.40-33.49L76.40-25.18Q65.54-25.86 56.55-29.17L56.55-29.17Q51.47-27.30 45.83-26.45Q40.19-25.61 34.34-25.18L34.34-25.18L34.34-34.09Q36.88-34.26 39.68-34.64Q42.48-35.02 45.28-35.61L45.28-35.61Q42.06-38.33 39.55-41.67Q37.05-45.02 35.44-49.18L35.44-49.18L45.36-49.18Q47.65-45.79 50.37-43.33Q53.08-40.87 56.05-39.09L56.05-39.09Q60.12-41.04 63.08-44.01Q66.05-46.97 67.24-51.30L67.24-51.30L33.15-51.30L37.65-61.39L48.84-61.39L47.65-58.76L76.40-58.76ZM9.67 0.34L9.67-36.97L1.53-36.97L12.21-60.96L23.15-60.96L16.53-46.13L19.16-46.13L19.16 0.34L9.67 0.34ZM22.30-46.13L31.80-46.13L31.80-8.73L22.30-8.73L22.30-46.13Z" transform="translate(270.39531 327.20461) skewX(0)" fill="#191934" stroke="#191934" stroke-width="0.141" data-glyph-w="78.0068" data-glyph-h="84.79" data-glyph-ascender="72.83461" data-glyph-descender="-11.955390000000001"></path><path d="M5.00-43.50L5.00-48.58L5.00-49.77L74.11-49.77L74.11-43.50L74.02-43.50L74.02-36.37Q74.02-34.42 73.30-32.77Q72.58-31.12 71.31-29.85Q70.04-28.57 68.34-27.85Q66.64-27.13 64.69-27.13L64.69-27.13L5.00-27.13L5.00-43.50ZM16.36-33.75L59.95-33.75Q60.96-33.75 61.68-34.38Q62.41-35.02 62.58-35.95L62.58-35.95L16.36-35.95L16.36-33.75ZM62.66-41.38L62.66-43.50L16.36-43.50L16.36-41.38L62.66-41.38ZM76.23-58.76L76.23-51.72L2.46-51.72L6.61-61.22L18.91-61.22L17.81-58.76L76.23-58.76ZM72.58-24.00L72.58-18.31Q69.19-14.75 64.86-12.08Q60.54-9.41 55.45-7.46L55.45-7.46Q61.47-6.78 66.86-6.53Q72.24-6.27 76.31-6.27L76.31-6.27L76.31 0.17Q72.75 0.17 68.43 0.08Q64.10 0 59.27-0.34Q54.44-0.68 49.31-1.23Q44.18-1.78 39.00-2.80L39.00-2.80Q33.83-1.78 28.70-1.23Q23.57-0.68 18.74-0.34Q13.91 0 9.58 0.08Q5.26 0.17 1.70 0.17L1.70 0.17L1.70-6.27Q5.77-6.27 11.15-6.53Q16.53-6.78 22.55-7.46L22.55-7.46Q18.48-9.07 14.75-11.15Q11.02-13.23 7.97-15.94L7.97-15.94L22.64-15.94Q26.03-14.08 30.23-12.63Q34.42-11.19 39.00-10.17L39.00-10.17Q45.02-11.53 50.20-13.52Q55.37-15.52 59.10-18.31L59.10-18.31L4.49-18.31L7.89-26.03L18.31-26.03L17.47-24.00L72.58-24.00Z" transform="translate(348.40211 327.20461) skewX(0)" fill="#191934" stroke="#191934" stroke-width="0.141" data-glyph-w="78.0068" data-glyph-h="84.79" data-glyph-ascender="72.83461" data-glyph-descender="-11.955390000000001"></path></g></svg></g>
        </g><g id="shape_h41x3JG2Qi" class="brand_first"  ref="shape_h41x3JG2Qi" key="shape_h41x3JG2Qi" transform="translate(119.83769317939499,-33.42999348568992) rotate(0,147.793489049254,342.88999999999993) scale(1,1)" style="cursor:move;display:inline;opacity:1;" filter="">
            <g style="display:inline"><svg xmlns="http://www.w3.org/2000/svg" version="1.1" xmlns:xlink="http://www.w3.org/1999/xlink" width="435.4" height="685.7799999999999" viewBox="0 0 435.4 685.7799999999999" preserveAspectRatio="none" data-parent="shape_h41x3JG2Qi"><rect fill="rgba(0,0,0,0)" width="55" height="114" x="95.1" y="285.88999999999993"></rect><g data-width="54.206999999999994" transform="translate(95.4965, 0)"><path d="M51.16-61.62L51.16-47.93L25.01-14.07L40.32-14.07L52.02-14.93L52.59-14.07L51.07 0.48L34.14 0L12.27 0L2.66 0.57L2.66-13.03L29.29-47.45L14.36-47.45L2.95-46.50L2.28-47.26L3.61-61.81L17.88-61.53L43.94-61.53L51.16-61.62Z" transform="translate(0 370.88999999999993) " fill="#FFFFFF" stroke="#FFFFFF" stroke-width="0.158" data-glyph-w="54.206999999999994" data-glyph-h="114.11999999999999" data-glyph-ascender="85.58999999999999" data-glyph-descender="-28.529999999999998"></path></g></svg></g>
        </g>
  </svg>